<?xml version="1.0" encoding="utf-8"?>
<svg version="1.1" xmlns="http://www.w3.org/2000/svg" xmlns:xlink="http://www.w3.org/1999/xlink" x="0px"
	 y="0px" viewBox="0 0 340 80" enable-background="new 0 0 340 80" xml:space="preserve">
<path d="M122.6,20.7c-4.5,0-8.1,1.6-10.7,4.8c-2.6,3.2-3.9,7.6-3.9,13.3c0,5.9,1.2,10.4,3.7,13.4c2.5,3,6.1,4.5,10.8,4.5
	c2,0,4-0.2,5.9-0.6c1.9-0.4,3.9-0.9,6-1.6v6.8c-3.8,1.4-8.1,2.1-12.9,2.1c-7.1,0-12.5-2.1-16.2-6.4c-3.8-4.3-5.7-10.4-5.7-18.3
	c0-5,0.9-9.4,2.8-13.2c1.8-3.8,4.5-6.6,8-8.6c3.5-2,7.5-3,12.2-3c4.9,0,9.5,1,13.6,3.1l-2.8,6.6c-1.6-0.8-3.3-1.4-5.2-2
	C126.5,21,124.6,20.7,122.6,20.7z"/>
<path d="M166.9,62.8l-1.5-5.1h-0.3c-1.8,2.2-3.5,3.7-5.3,4.5s-4.1,1.2-6.9,1.2c-3.6,0-6.4-1-8.4-2.9c-2-1.9-3-4.7-3-8.2
	c0-3.8,1.4-6.6,4.2-8.5c2.8-1.9,7-3,12.8-3.1l6.3-0.2v-1.9c0-2.3-0.5-4.1-1.6-5.2c-1.1-1.2-2.8-1.7-5.1-1.7c-1.9,0-3.7,0.3-5.4,0.8
	c-1.7,0.5-3.4,1.2-4.9,1.9l-2.5-5.5c2-1,4.1-1.8,6.5-2.4c2.4-0.5,4.6-0.8,6.7-0.8c4.6,0,8.1,1,10.5,3c2.4,2,3.5,5.2,3.5,9.5v24.6
	H166.9z M155.4,57.5c2.8,0,5.1-0.8,6.8-2.4c1.7-1.6,2.6-3.8,2.6-6.6v-3.2l-4.7,0.2c-3.6,0.1-6.3,0.7-8,1.8c-1.7,1.1-2.5,2.8-2.5,5
	c0,1.6,0.5,2.9,1.5,3.8C152,57.1,153.4,57.5,155.4,57.5z"/>
<path d="M201.7,63.4c-4.6,0-8.2-1.7-10.7-5h-0.5c0.3,3.1,0.5,4.9,0.5,5.6V79h-7.7V26.3h6.3c0.2,0.7,0.5,2.3,1.1,4.9h0.4
	c2.4-3.7,6-5.5,10.9-5.5c4.5,0,8.1,1.6,10.6,4.9c2.5,3.3,3.8,7.9,3.8,13.9c0,6-1.3,10.6-3.9,13.9C209.8,61.8,206.3,63.4,201.7,63.4z
	 M199.8,32c-3.1,0-5.3,0.9-6.7,2.7c-1.4,1.8-2.1,4.7-2.1,8.6v1.2c0,4.4,0.7,7.7,2.1,9.6c1.4,2,3.7,3,6.9,3c2.7,0,4.7-1.1,6.2-3.3
	c1.5-2.2,2.2-5.3,2.2-9.4c0-4.1-0.7-7.2-2.2-9.3C204.8,33.1,202.6,32,199.8,32z"/>
<path d="M241.2,63.4c-5.7,0-10.1-1.7-13.3-5c-3.2-3.3-4.8-7.9-4.8-13.7c0-6,1.5-10.6,4.4-14c3-3.4,7-5.1,12.2-5.1
	c4.8,0,8.6,1.5,11.4,4.4c2.8,2.9,4.2,6.9,4.2,12.1v4.2h-24.3c0.1,3.5,1.1,6.3,2.9,8.2c1.8,1.9,4.3,2.9,7.6,2.9c2.2,0,4.2-0.2,6-0.6
	c1.9-0.4,3.9-1.1,6-2V61c-1.9,0.9-3.8,1.5-5.7,1.9C245.9,63.3,243.7,63.4,241.2,63.4z M239.8,31.5c-2.5,0-4.4,0.8-5.9,2.3
	c-1.5,1.6-2.4,3.8-2.7,6.8h16.5c0-3-0.8-5.3-2.2-6.8C244.2,32.3,242.3,31.5,239.8,31.5z"/>
<path d="M279,76.2c-2.2,0-4-0.3-5.4-0.8v-6.6c1.8,0.5,3.4,0.7,4.8,0.7c4.3,0,6.5-2.7,6.5-8.2V14.6h7.9V61c0,4.9-1.2,8.7-3.5,11.3
	C286.9,74.9,283.5,76.2,279,76.2z"/>
<path d="M333.5,49.7c0,4.3-1.5,7.6-4.6,10.1c-3.1,2.4-7.4,3.7-12.8,3.7c-5.4,0-9.9-0.8-13.4-2.5v-7.4c2.2,1,4.5,1.8,7,2.4
	c2.5,0.6,4.8,0.9,6.9,0.9c3.1,0,5.4-0.6,6.9-1.8c1.5-1.2,2.2-2.8,2.2-4.8c0-1.8-0.7-3.3-2-4.6c-1.4-1.3-4.2-2.7-8.4-4.4
	c-4.4-1.8-7.5-3.8-9.3-6.1c-1.8-2.3-2.7-5-2.7-8.2c0-4,1.4-7.2,4.3-9.5s6.7-3.5,11.5-3.5c4.6,0,9.2,1,13.8,3l-2.5,6.4
	c-4.3-1.8-8.1-2.7-11.5-2.7c-2.5,0-4.5,0.6-5.8,1.7c-1.3,1.1-2,2.6-2,4.4c0,1.3,0.3,2.3,0.8,3.2c0.5,0.9,1.4,1.7,2.6,2.5
	c1.2,0.8,3.4,1.8,6.5,3.1c3.5,1.5,6.1,2.8,7.8,4.1c1.6,1.3,2.9,2.7,3.6,4.3C333.1,45.6,333.5,47.5,333.5,49.7z"/>
<circle cx="65.9" cy="17.9" r="11.4"/>
<path d="M55,28.7c0,0-5-4.5-16.4-3.2C26.1,27,18.8,35,4.1,34.8c2.2,3.9,5.4,2.9,7.5,4.8c2.4,2.1,1.7,4.7,4,6.4
	c2.1,1.5,4.9,0.5,7.4,2.5c2.4,1.9,1.4,3.7,3.6,5.8C27.5,39.5,40.1,28,55,28.7z"/>
<path d="M88,27.7c-0.9-1.5-2.8-2-4.3-1.2c-0.2,0.1-0.3,0.2-0.4,0.3l0,0c0,0,0,0-0.1,0.1c0,0,0,0,0,0c-5.5,4.8-12.6,6.9-20.3,5.6
	c0,0,0,0,0,0C49.7,30.2,37.2,39,35,52.1c-1.1,6.5,0.5,12.8,4,17.9c2.4-13.7,12.7-24.1,25.4-27.2c5.9-1.7,11.5-2.3,15.9-5.1
	c5.2-3.4,7.4-6.3,7.4-6.3l0,0C88.5,30.4,88.7,28.9,88,27.7z"/>
<circle cx="267.9" cy="58.6" r="4.9"/>
</svg>
